<?xml version="1.0" encoding="UTF-8" standalone="no"?>
<!-- Created with Inkscape (http://www.inkscape.org/) -->

<svg
   width="210mm"
   height="297mm"
   viewBox="0 0 210 297"
   version="1.1"
   id="svg5"
   inkscape:version="1.1.2 (b8e25be833, 2022-02-05)"
   sodipodi:docname="zenit research and development.svg"
   xmlns:inkscape="http://www.inkscape.org/namespaces/inkscape"
   xmlns:sodipodi="http://sodipodi.sourceforge.net/DTD/sodipodi-0.dtd"
   xmlns="http://www.w3.org/2000/svg"
   xmlns:svg="http://www.w3.org/2000/svg">
  <sodipodi:namedview
     id="namedview7"
     pagecolor="#ffffff"
     bordercolor="#666666"
     borderopacity="1.0"
     inkscape:pageshadow="2"
     inkscape:pageopacity="0.0"
     inkscape:pagecheckerboard="0"
     inkscape:document-units="mm"
     showgrid="false"
     inkscape:zoom="0.47126122"
     inkscape:cx="150.65954"
     inkscape:cy="562.32083"
     inkscape:window-width="1366"
     inkscape:window-height="715"
     inkscape:window-x="-8"
     inkscape:window-y="-8"
     inkscape:window-maximized="1"
     inkscape:current-layer="layer1" />
  <defs
     id="defs2" />
  <g
     inkscape:label="Camada 1"
     inkscape:groupmode="layer"
     id="layer1">
    <g
       style="overflow:hidden;fill:currentColor"
       id="g21"
       transform="matrix(0.22703821,0,0,0.22703821,-11.331718,-3.0998283)">
      <path
         d="m 498.34667,512 m -85.33334,0 a 85.333335,85.333335 0 1 0 170.66667,0 85.333335,85.333335 0 1 0 -170.66667,0 z"
         fill=""
         id="path9" />
      <path
         d="m 955.73333,245.76 c -13.65333,-23.89333 -44.37333,-51.2 -122.88,-51.2 -51.2,0 -116.05333,13.65333 -180.90666,34.13333 -10.24,-34.13333 -17.06667,-64.85333 -30.72,-92.16 17.06666,-13.65333 27.30666,-30.72 27.30666,-54.61333 0,-37.546667 -30.72,-68.266667 -68.26666,-68.266667 -13.65334,0 -30.72,6.826667 -40.96,13.653334 -13.65334,-10.24 -30.72,-13.653333 -44.37334,-13.653334 C 426.66667,13.653333 372.05333,102.4 337.92,235.52 283.30667,221.86667 232.10667,215.04 187.73333,215.04 112.64,215.04 81.92,242.34667 68.266667,262.82667 c -34.133333,58.02666 17.066667,153.6 119.466663,252.58666 -10.24,13.65334 -17.06666,23.89334 -27.30666,30.72 C 92.16,624.64 71.68,692.90667 98.986667,740.69333 c 6.826663,13.65334 20.480003,23.89334 34.133333,30.72 0,13.65334 0,27.30667 6.82667,40.96 13.65333,20.48 34.13333,34.13334 58.02666,34.13334 10.24,0 23.89334,-3.41334 34.13334,-10.24 20.48,-10.24 30.72,-30.72 34.13333,-51.2 20.48,-3.41334 44.37333,-6.82667 68.26667,-13.65334 C 368.64,911.36 426.66667,1003.52 494.93333,1003.52 c 68.26667,0 122.88,-88.74667 157.01334,-221.86667 37.54666,10.24 71.68,17.06667 102.4,20.48 0,3.41334 0,6.82667 3.41333,10.24 3.41333,17.06667 17.06667,30.72 30.72,40.96 10.24,6.82667 20.48,10.24 34.13333,10.24 23.89334,0 47.78667,-13.65333 58.02667,-34.13333 6.82667,-13.65333 10.24,-27.30667 6.82667,-40.96 C 901.12,781.65333 914.77333,768 921.6,757.76 955.73333,699.73333 911.36,610.98667 812.37333,515.41333 c 122.88,-102.4 180.90667,-204.8 143.36,-269.65333 z M 836.26667,232.10667 c 34.13333,0 75.09333,6.82666 92.16,34.13333 23.89333,44.37333 -23.89334,133.12 -133.12,228.69333 -34.13334,-30.72 -71.68,-58.02666 -112.64,-88.74666 -3.41334,-51.2 -10.24,-95.57334 -20.48,-139.94667 64.85333,-23.89333 122.88,-34.13333 174.08,-34.13333 z M 604.16,628.05333 c -37.54667,20.48 -75.09333,40.96 -109.22667,58.02667 C 471.04,672.42667 447.14667,662.18667 419.84,648.53333 392.53333,634.88 368.64,617.81333 344.74667,604.16 c -3.41334,-27.30667 -3.41334,-58.02667 -3.41334,-85.33333 0,-27.30667 0,-58.02667 3.41334,-81.92 C 378.88,413.01333 413.01333,392.53333 450.56,368.64 c 13.65333,-6.82667 30.72,-17.06667 44.37333,-23.89333 27.30667,13.65333 51.2,27.30666 78.50667,40.96 27.30667,13.65333 51.2,30.72 75.09333,44.37333 3.41334,27.30667 3.41334,58.02667 3.41334,85.33333 0,30.72 0,61.44 -3.41334,88.74667 -13.65333,6.82667 -30.72,13.65333 -44.37333,23.89333 z M 645.12,645.12 c -3.41333,34.13333 -6.82667,68.26667 -13.65333,98.98667 -30.72,-10.24 -61.44,-23.89334 -95.57334,-37.54667 30.72,-13.65333 58.02667,-30.72 88.74667,-47.78667 3.41333,-6.82666 10.24,-10.24 20.48,-13.65333 z m -191.14667,58.02667 c -30.72,13.65333 -61.44,23.89333 -88.74666,30.72 -6.82667,-27.30667 -10.24,-58.02667 -13.65334,-92.16 17.06667,10.24 34.13334,20.48 54.61334,30.72 13.65333,10.24 30.72,20.48 47.78666,30.72 z M 310.61333,573.44 c -27.30666,-20.48 -51.2,-37.54667 -71.68,-58.02667 20.48,-20.48 47.78667,-40.96 71.68,-61.44 z M 348.16,385.70667 c 3.41333,-37.54667 10.24,-71.68 13.65333,-102.4 30.72,10.24 61.44,23.89333 92.16,37.54666 -6.82666,3.41334 -13.65333,6.82667 -23.89333,13.65334 -27.30667,13.65333 -54.61333,30.72 -81.92,51.2 z M 532.48,317.44 c 30.72,-17.06667 64.85333,-30.72 95.57333,-40.96 6.82667,34.13333 13.65334,68.26667 17.06667,105.81333 -17.06667,-10.24 -34.13333,-20.48 -54.61333,-30.72 C 570.02667,337.92 552.96,327.68 532.48,317.44 Z m 150.18667,133.12 c 30.72,20.48 58.02666,44.37333 81.92,64.85333 -23.89334,20.48 -51.2,40.96 -81.92,61.44 0,-20.48 3.41333,-44.37333 3.41333,-64.85333 0,-20.48 -3.41333,-40.96 -3.41333,-61.44 z M 498.34667,51.2 c 6.82666,0 13.65333,3.413333 23.89333,6.826667 -3.41333,10.24 -6.82667,17.066667 -6.82667,27.306666 V 102.4 c 0,3.41333 3.41334,6.82667 3.41334,10.24 v 3.41333 c 3.41333,3.41334 3.41333,6.82667 6.82666,10.24 3.41334,3.41334 6.82667,6.82667 6.82667,10.24 3.41333,3.41334 6.82667,3.41334 10.24,6.82667 h 3.41333 c 3.41334,0 6.82667,3.41333 10.24,3.41333 h 3.41334 c 3.41333,0 6.82666,0 6.82666,3.41334 H 583.68 c 10.24,27.30666 20.48,58.02666 30.72,88.74666 -40.96,13.65334 -81.92,34.13334 -126.29333,54.61334 -40.96,-20.48 -81.92,-37.54667 -122.88,-51.2 C 402.77333,126.29333 450.56,51.2 498.34667,51.2 Z M 98.986667,283.30667 C 116.05333,256 157.01333,249.17333 191.14667,249.17333 c 40.96,0 88.74666,10.24 143.36,23.89334 -10.24,40.96 -13.65334,88.74666 -20.48,136.53333 C 276.48,436.90667 242.34667,464.21333 215.04,491.52 116.05333,402.77333 75.093333,320.85333 98.986667,283.30667 Z m 163.840003,471.04 c 0,-3.41334 -3.41334,-6.82667 -3.41334,-6.82667 -3.41333,-3.41333 -6.82666,-6.82667 -10.24,-13.65333 l -6.82666,-6.82667 -3.41334,-3.41333 c -10.24,-6.82667 -23.89333,-13.65334 -40.96,-13.65334 h -6.82666 -3.41334 c -3.41333,0 -6.82666,0 -10.24,3.41334 -3.41333,0 -10.24,3.41333 -13.65333,6.82666 -10.24,3.41334 -17.06667,10.24 -20.48,20.48 -6.82667,-3.41333 -13.65333,-10.24 -17.06667,-17.06666 -17.06666,-30.72 3.41334,-88.74667 58.02667,-153.6 6.82667,-10.24 17.06667,-20.48 27.30667,-27.30667 30.72,27.30667 61.44,51.2 98.98666,78.50667 3.41334,44.37333 10.24,85.33333 17.06667,122.88 -20.48,3.41333 -44.37333,10.24 -64.85333,10.24 z M 498.34667,972.8 C 450.56,972.8 402.77333,894.29333 372.05333,768 c 37.54667,-10.24 81.92,-27.30667 122.88,-44.37333 44.37334,20.48 88.74667,37.54666 129.70667,51.2 C 590.50667,897.70667 542.72,972.8 498.34667,972.8 Z M 894.29333,744.10667 c -3.41333,6.82666 -10.24,13.65333 -17.06666,17.06666 l -10.24,-10.24 C 863.57333,747.52 860.16,744.10667 856.74667,744.10667 849.92,740.69333 839.68,737.28 832.85333,737.28 H 819.2 815.78667 c -17.06667,3.41333 -34.13334,10.24 -44.37334,20.48 -3.41333,3.41333 -6.82666,6.82667 -6.82666,10.24 0,3.41333 -3.41334,3.41333 -3.41334,6.82667 -30.72,-3.41334 -64.85333,-10.24 -98.98666,-20.48 6.82666,-40.96 13.65333,-85.33334 17.06666,-129.70667 40.96,-27.30667 78.50667,-54.61333 112.64,-81.92 88.74667,81.92 126.29334,160.42667 102.4,201.38667 z"
         fill=""
         id="path11" />
    </g>
    <text
       xml:space="preserve"
       style="font-size:50.8px;line-height:1.25;font-family:'Russo One';-inkscape-font-specification:'Russo One';stroke-width:2.11666"
       x="28.164989"
       y="265.81876"
       id="text8561"><tspan
         sodipodi:role="line"
         style="font-size:50.8px;stroke-width:2.11666"
         x="28.164989"
         y="265.81876"
         id="tspan8573">ZENIT</tspan></text>
    <text
       xml:space="preserve"
       style="font-size:14.1524px;line-height:2.05;font-family:'Russo One';-inkscape-font-specification:'Russo One';stroke-width:0.331696"
       x="36.069717"
       y="226.62764"
       id="text16759"
       transform="scale(0.79766794,1.2536545)"><tspan
         sodipodi:role="line"
         id="tspan16757"
         style="font-size:14.1524px;stroke-width:0.331696"
         x="36.069717"
         y="226.62764">research and development</tspan></text>
  </g>
</svg>
