<?xml version="1.0" encoding="UTF-8" standalone="no"?>
<!-- Created with Inkscape (http://www.inkscape.org/) -->

<svg
   width="529mm"
   height="227mm"
   viewBox="0 0 529 227"
   version="1.1"
   id="svg5"
   inkscape:version="1.1.2 (b8e25be833, 2022-02-05)"
   sodipodi:docname="zradl 2.svg"
   xmlns:inkscape="http://www.inkscape.org/namespaces/inkscape"
   xmlns:sodipodi="http://sodipodi.sourceforge.net/DTD/sodipodi-0.dtd"
   xmlns="http://www.w3.org/2000/svg"
   xmlns:svg="http://www.w3.org/2000/svg">
  <sodipodi:namedview
     id="namedview7"
     pagecolor="#ffffff"
     bordercolor="#666666"
     borderopacity="1.0"
     inkscape:pageshadow="2"
     inkscape:pageopacity="0.0"
     inkscape:pagecheckerboard="0"
     inkscape:document-units="mm"
     showgrid="false"
     inkscape:zoom="0.47126122"
     inkscape:cx="1550.0957"
     inkscape:cy="766.02951"
     inkscape:window-width="1366"
     inkscape:window-height="715"
     inkscape:window-x="-8"
     inkscape:window-y="-8"
     inkscape:window-maximized="1"
     inkscape:current-layer="layer1"
     width="211mm" />
  <defs
     id="defs2" />
  <g
     inkscape:label="Camada 1"
     inkscape:groupmode="layer"
     id="layer1">
    <g
       style="overflow:hidden;fill:currentColor"
       id="g21"
       transform="matrix(0.22703821,0,0,0.22703821,-11.331718,-3.0998283)">
      <path
         d="m 498.34667,512 m -85.33334,0 a 85.333335,85.333335 0 1 0 170.66667,0 85.333335,85.333335 0 1 0 -170.66667,0 z"
         fill=""
         id="path9" />
      <path
         d="m 955.73333,245.76 c -13.65333,-23.89333 -44.37333,-51.2 -122.88,-51.2 -51.2,0 -116.05333,13.65333 -180.90666,34.13333 -10.24,-34.13333 -17.06667,-64.85333 -30.72,-92.16 17.06666,-13.65333 27.30666,-30.72 27.30666,-54.61333 0,-37.546667 -30.72,-68.266667 -68.26666,-68.266667 -13.65334,0 -30.72,6.826667 -40.96,13.653334 -13.65334,-10.24 -30.72,-13.653333 -44.37334,-13.653334 C 426.66667,13.653333 372.05333,102.4 337.92,235.52 283.30667,221.86667 232.10667,215.04 187.73333,215.04 112.64,215.04 81.92,242.34667 68.266667,262.82667 c -34.133333,58.02666 17.066667,153.6 119.466663,252.58666 -10.24,13.65334 -17.06666,23.89334 -27.30666,30.72 C 92.16,624.64 71.68,692.90667 98.986667,740.69333 c 6.826663,13.65334 20.480003,23.89334 34.133333,30.72 0,13.65334 0,27.30667 6.82667,40.96 13.65333,20.48 34.13333,34.13334 58.02666,34.13334 10.24,0 23.89334,-3.41334 34.13334,-10.24 20.48,-10.24 30.72,-30.72 34.13333,-51.2 20.48,-3.41334 44.37333,-6.82667 68.26667,-13.65334 C 368.64,911.36 426.66667,1003.52 494.93333,1003.52 c 68.26667,0 122.88,-88.74667 157.01334,-221.86667 37.54666,10.24 71.68,17.06667 102.4,20.48 0,3.41334 0,6.82667 3.41333,10.24 3.41333,17.06667 17.06667,30.72 30.72,40.96 10.24,6.82667 20.48,10.24 34.13333,10.24 23.89334,0 47.78667,-13.65333 58.02667,-34.13333 6.82667,-13.65333 10.24,-27.30667 6.82667,-40.96 C 901.12,781.65333 914.77333,768 921.6,757.76 955.73333,699.73333 911.36,610.98667 812.37333,515.41333 c 122.88,-102.4 180.90667,-204.8 143.36,-269.65333 z M 836.26667,232.10667 c 34.13333,0 75.09333,6.82666 92.16,34.13333 23.89333,44.37333 -23.89334,133.12 -133.12,228.69333 -34.13334,-30.72 -71.68,-58.02666 -112.64,-88.74666 -3.41334,-51.2 -10.24,-95.57334 -20.48,-139.94667 64.85333,-23.89333 122.88,-34.13333 174.08,-34.13333 z M 604.16,628.05333 c -37.54667,20.48 -75.09333,40.96 -109.22667,58.02667 C 471.04,672.42667 447.14667,662.18667 419.84,648.53333 392.53333,634.88 368.64,617.81333 344.74667,604.16 c -3.41334,-27.30667 -3.41334,-58.02667 -3.41334,-85.33333 0,-27.30667 0,-58.02667 3.41334,-81.92 C 378.88,413.01333 413.01333,392.53333 450.56,368.64 c 13.65333,-6.82667 30.72,-17.06667 44.37333,-23.89333 27.30667,13.65333 51.2,27.30666 78.50667,40.96 27.30667,13.65333 51.2,30.72 75.09333,44.37333 3.41334,27.30667 3.41334,58.02667 3.41334,85.33333 0,30.72 0,61.44 -3.41334,88.74667 -13.65333,6.82667 -30.72,13.65333 -44.37333,23.89333 z M 645.12,645.12 c -3.41333,34.13333 -6.82667,68.26667 -13.65333,98.98667 -30.72,-10.24 -61.44,-23.89334 -95.57334,-37.54667 30.72,-13.65333 58.02667,-30.72 88.74667,-47.78667 3.41333,-6.82666 10.24,-10.24 20.48,-13.65333 z m -191.14667,58.02667 c -30.72,13.65333 -61.44,23.89333 -88.74666,30.72 -6.82667,-27.30667 -10.24,-58.02667 -13.65334,-92.16 17.06667,10.24 34.13334,20.48 54.61334,30.72 13.65333,10.24 30.72,20.48 47.78666,30.72 z M 310.61333,573.44 c -27.30666,-20.48 -51.2,-37.54667 -71.68,-58.02667 20.48,-20.48 47.78667,-40.96 71.68,-61.44 z M 348.16,385.70667 c 3.41333,-37.54667 10.24,-71.68 13.65333,-102.4 30.72,10.24 61.44,23.89333 92.16,37.54666 -6.82666,3.41334 -13.65333,6.82667 -23.89333,13.65334 -27.30667,13.65333 -54.61333,30.72 -81.92,51.2 z M 532.48,317.44 c 30.72,-17.06667 64.85333,-30.72 95.57333,-40.96 6.82667,34.13333 13.65334,68.26667 17.06667,105.81333 -17.06667,-10.24 -34.13333,-20.48 -54.61333,-30.72 C 570.02667,337.92 552.96,327.68 532.48,317.44 Z m 150.18667,133.12 c 30.72,20.48 58.02666,44.37333 81.92,64.85333 -23.89334,20.48 -51.2,40.96 -81.92,61.44 0,-20.48 3.41333,-44.37333 3.41333,-64.85333 0,-20.48 -3.41333,-40.96 -3.41333,-61.44 z M 498.34667,51.2 c 6.82666,0 13.65333,3.413333 23.89333,6.826667 -3.41333,10.24 -6.82667,17.066667 -6.82667,27.306666 V 102.4 c 0,3.41333 3.41334,6.82667 3.41334,10.24 v 3.41333 c 3.41333,3.41334 3.41333,6.82667 6.82666,10.24 3.41334,3.41334 6.82667,6.82667 6.82667,10.24 3.41333,3.41334 6.82667,3.41334 10.24,6.82667 h 3.41333 c 3.41334,0 6.82667,3.41333 10.24,3.41333 h 3.41334 c 3.41333,0 6.82666,0 6.82666,3.41334 H 583.68 c 10.24,27.30666 20.48,58.02666 30.72,88.74666 -40.96,13.65334 -81.92,34.13334 -126.29333,54.61334 -40.96,-20.48 -81.92,-37.54667 -122.88,-51.2 C 402.77333,126.29333 450.56,51.2 498.34667,51.2 Z M 98.986667,283.30667 C 116.05333,256 157.01333,249.17333 191.14667,249.17333 c 40.96,0 88.74666,10.24 143.36,23.89334 -10.24,40.96 -13.65334,88.74666 -20.48,136.53333 C 276.48,436.90667 242.34667,464.21333 215.04,491.52 116.05333,402.77333 75.093333,320.85333 98.986667,283.30667 Z m 163.840003,471.04 c 0,-3.41334 -3.41334,-6.82667 -3.41334,-6.82667 -3.41333,-3.41333 -6.82666,-6.82667 -10.24,-13.65333 l -6.82666,-6.82667 -3.41334,-3.41333 c -10.24,-6.82667 -23.89333,-13.65334 -40.96,-13.65334 h -6.82666 -3.41334 c -3.41333,0 -6.82666,0 -10.24,3.41334 -3.41333,0 -10.24,3.41333 -13.65333,6.82666 -10.24,3.41334 -17.06667,10.24 -20.48,20.48 -6.82667,-3.41333 -13.65333,-10.24 -17.06667,-17.06666 -17.06666,-30.72 3.41334,-88.74667 58.02667,-153.6 6.82667,-10.24 17.06667,-20.48 27.30667,-27.30667 30.72,27.30667 61.44,51.2 98.98666,78.50667 3.41334,44.37333 10.24,85.33333 17.06667,122.88 -20.48,3.41333 -44.37333,10.24 -64.85333,10.24 z M 498.34667,972.8 C 450.56,972.8 402.77333,894.29333 372.05333,768 c 37.54667,-10.24 81.92,-27.30667 122.88,-44.37333 44.37334,20.48 88.74667,37.54666 129.70667,51.2 C 590.50667,897.70667 542.72,972.8 498.34667,972.8 Z M 894.29333,744.10667 c -3.41333,6.82666 -10.24,13.65333 -17.06666,17.06666 l -10.24,-10.24 C 863.57333,747.52 860.16,744.10667 856.74667,744.10667 849.92,740.69333 839.68,737.28 832.85333,737.28 H 819.2 815.78667 c -17.06667,3.41333 -34.13334,10.24 -44.37334,20.48 -3.41333,3.41333 -6.82666,6.82667 -6.82666,10.24 0,3.41333 -3.41334,3.41333 -3.41334,6.82667 -30.72,-3.41334 -64.85333,-10.24 -98.98666,-20.48 6.82666,-40.96 13.65333,-85.33334 17.06666,-129.70667 40.96,-27.30667 78.50667,-54.61333 112.64,-81.92 88.74667,81.92 126.29334,160.42667 102.4,201.38667 z"
         fill=""
         id="path11" />
    </g>
    <g
       aria-label="ZENIT"
       id="text8561"
       style="font-size:101.6px;line-height:1.25;font-family:'Russo One';-inkscape-font-specification:'Russo One';stroke-width:4.23332">
      <path
         d="m 274.02635,75.127652 -35.56,42.671998 h 35.56 v 14.224 h -57.912 v -14.224 l 35.56,-42.671998 h -35.56 v -14.224 h 57.912 z"
         id="path14773" />
      <path
         d="m 338.54241,132.02365 h -56.388 V 60.903652 h 56.388 v 14.224 h -38.1 v 13.716 h 29.972 v 14.223998 h -29.972 v 14.732 h 38.1 z"
         id="path14775" />
      <path
         d="m 408.64643,132.02365 h -19.304 l -24.384,-42.671998 v 42.671998 h -18.288 V 60.903652 h 19.304 l 24.384,42.671998 V 60.903652 h 18.288 z"
         id="path14777" />
      <path
         d="m 454.36639,132.02365 h -36.576 v -14.224 h 9.144 V 75.127652 h -9.144 v -14.224 h 36.576 v 14.224 h -9.144 v 42.671998 h 9.144 z"
         id="path14779" />
      <path
         d="m 498.0544,132.02365 h -18.288 V 75.127652 h -21.336 v -14.224 h 60.96 v 14.224 h -21.336 z"
         id="path14781" />
    </g>
    <g
       aria-label="LABORATORIES"
       id="text1853"
       style="font-size:38.8056px;line-height:2.05;font-family:'Russo One';-inkscape-font-specification:'Russo One';stroke-width:1.05833">
      <path
         d="m 222.77674,160.6362 h 14.16404 v 5.43278 h -21.14905 v -27.16391 h 6.98501 z"
         id="path9333" />
      <path
         d="m 244.50786,166.06898 h -7.56709 l 10.28349,-27.16391 h 7.76112 l 10.28348,27.16391 h -7.56709 l -1.74625,-4.85069 h -9.7014 z m 3.49251,-9.89542 h 6.20889 l -3.10444,-9.11932 z"
         id="path9335" />
      <path
         d="m 267.2091,138.90507 h 15.52224 q 3.80295,0 5.58801,1.74625 1.78506,1.70744 1.78506,5.23875 0,2.32834 -1.00895,3.80295 -1.00894,1.43581 -2.48356,2.01789 0.85373,0.23284 1.70745,0.73731 0.85372,0.50447 1.47461,1.3582 0.6597,0.85372 1.04775,2.0955 0.42687,1.20297 0.42687,2.794 0,3.80295 -1.78506,5.58801 -1.78506,1.78505 -5.58801,1.78505 H 267.2091 Z m 17.07447,18.62668 q 0,-2.32833 -2.32834,-2.32833 h -7.76112 v 5.43278 h 7.76112 q 2.32834,0 2.32834,-2.32833 z m -1.16417,-10.86556 q 0,-2.32834 -2.32834,-2.32834 h -6.59695 v 5.43278 h 6.59695 q 2.32834,0 2.32834,-2.32833 z"
         id="path9337" />
      <path
         d="m 312.22356,146.27813 q 0,-2.32834 -2.32833,-2.32834 h -6.59695 q -2.32834,0 -2.32834,2.32834 v 12.41779 q 0,2.32834 2.32834,2.32834 h 6.59695 q 2.32833,0 2.32833,-2.32834 z m 6.98501,12.41779 q 0,4.07459 -1.86267,5.93726 -1.82386,1.82386 -5.89845,1.82386 h -9.7014 q -4.07459,0 -5.93725,-1.82386 -1.82387,-1.86267 -1.82387,-5.93726 v -12.41779 q 0,-4.07459 1.82387,-5.89845 1.86266,-1.86267 5.93725,-1.86267 h 9.7014 q 4.07459,0 5.89845,1.86267 1.86267,1.82386 1.86267,5.89845 z"
         id="path9339" />
      <path
         d="m 323.08911,138.90507 h 16.29835 q 4.07459,0 5.89845,1.86266 1.86267,1.82387 1.86267,5.89846 v 3.4925 q 0,3.22086 -1.08656,5.00592 -1.04775,1.78506 -3.37608,2.36714 l 4.8507,8.53723 h -7.5671 l -4.46264,-8.14917 h -5.43278 v 8.14917 h -6.98501 z m 17.07446,7.76112 q 0,-2.32834 -2.32833,-2.32834 h -7.76112 v 8.14918 h 7.76112 q 2.32833,0 2.32833,-2.32834 z"
         id="path9341" />
      <path
         d="m 355.87981,166.06898 h -7.56709 l 10.28348,-27.16391 h 7.76112 l 10.28349,27.16391 h -7.5671 l -1.74625,-4.85069 h -9.7014 z m 3.4925,-9.89542 h 6.2089 l -3.10445,-9.11932 z"
         id="path9343" />
      <path
         d="m 389.05859,166.06898 h -6.98501 v -21.73113 h -8.14918 v -5.43278 h 23.28336 v 5.43278 h -8.14917 z"
         id="path9345" />
      <path
         d="m 417.3867,146.27813 q 0,-2.32834 -2.32834,-2.32834 h -6.59695 q -2.32834,0 -2.32834,2.32834 v 12.41779 q 0,2.32834 2.32834,2.32834 h 6.59695 q 2.32834,0 2.32834,-2.32834 z m 6.985,12.41779 q 0,4.07459 -1.86266,5.93726 -1.82387,1.82386 -5.89846,1.82386 h -9.7014 q -4.07458,0 -5.93725,-1.82386 -1.82387,-1.86267 -1.82387,-5.93726 v -12.41779 q 0,-4.07459 1.82387,-5.89845 1.86267,-1.86267 5.93725,-1.86267 h 9.7014 q 4.07459,0 5.89846,1.86267 1.86266,1.82386 1.86266,5.89845 z"
         id="path9347" />
      <path
         d="m 428.25226,138.90507 h 16.29835 q 4.07459,0 5.89845,1.86266 1.86267,1.82387 1.86267,5.89846 v 3.4925 q 0,3.22086 -1.08656,5.00592 -1.04775,1.78506 -3.37609,2.36714 l 4.8507,8.53723 h -7.56709 l -4.46264,-8.14917 h -5.43279 v 8.14917 h -6.985 z m 17.07446,7.76112 q 0,-2.32834 -2.32834,-2.32834 h -7.76112 v 8.14918 h 7.76112 q 2.32834,0 2.32834,-2.32834 z"
         id="path9349" />
      <path
         d="m 468.99811,166.06898 h -13.97002 v -5.43278 h 3.4925 v -16.29835 h -3.4925 v -5.43278 h 13.97002 v 5.43278 h -3.49251 v 16.29835 h 3.49251 z"
         id="path9351" />
      <path
         d="m 494.02772,166.06898 h -21.53711 v -27.16391 h 21.53711 v 5.43278 h -14.5521 v 5.23876 h 11.44765 v 5.43278 h -11.44765 v 5.62681 h 14.5521 z"
         id="path9353" />
      <path
         d="m 502.95302,147.4423 q 0,2.32833 2.32834,2.32833 h 6.98501 q 3.80295,0 5.588,1.78506 1.78506,1.78506 1.78506,5.58801 v 1.94028 q 0,3.80295 -1.78506,5.588 -1.78505,1.78506 -5.588,1.78506 -1.16417,0 -2.48356,-0.0388 -1.28059,-0.0388 -2.63878,-0.11642 -1.31939,-0.0388 -2.67759,-0.11642 -1.31939,-0.0388 -2.52236,-0.11642 -2.83281,-0.15522 -5.62681,-0.38805 v -5.23876 q 2.83281,0.15523 5.51039,0.31045 2.28953,0.11641 4.73428,0.19403 2.44476,0.0776 4.1522,0.0776 0.89253,0 1.39701,-0.50448 0.54327,-0.54327 0.54327,-1.4358 v -3.49251 h -8.92528 q -4.07459,0 -5.93726,-1.82386 -1.82386,-1.86267 -1.82386,-5.93726 v -1.16416 q 0,-4.07459 1.82386,-5.89846 1.86267,-1.86266 5.93726,-1.86266 h 13.62076 v 5.43278 h -12.06854 q -2.32834,0 -2.32834,2.32834 z"
         id="path9355" />
    </g>
  </g>
</svg>
