<?xml version="1.0" encoding="UTF-8" standalone="no"?>
<!-- Created with Inkscape (http://www.inkscape.org/) -->

<svg
   width="210mm"
   height="297mm"
   viewBox="0 0 210 297"
   version="1.1"
   id="svg5"
   inkscape:version="1.1.2 (b8e25be833, 2022-02-05)"
   sodipodi:docname="zradl - Copia.svg"
   xmlns:inkscape="http://www.inkscape.org/namespaces/inkscape"
   xmlns:sodipodi="http://sodipodi.sourceforge.net/DTD/sodipodi-0.dtd"
   xmlns="http://www.w3.org/2000/svg"
   xmlns:svg="http://www.w3.org/2000/svg">
  <sodipodi:namedview
     id="namedview7"
     pagecolor="#ffffff"
     bordercolor="#666666"
     borderopacity="1.0"
     inkscape:pageshadow="2"
     inkscape:pageopacity="0.0"
     inkscape:pagecheckerboard="0"
     inkscape:document-units="mm"
     showgrid="false"
     inkscape:zoom="0.47126122"
     inkscape:cx="217.50145"
     inkscape:cy="562.32083"
     inkscape:window-width="1366"
     inkscape:window-height="715"
     inkscape:window-x="-8"
     inkscape:window-y="-8"
     inkscape:window-maximized="1"
     inkscape:current-layer="layer1" />
  <defs
     id="defs2" />
  <g
     inkscape:label="Camada 1"
     inkscape:groupmode="layer"
     id="layer1">
    <g
       style="overflow:hidden;fill:currentColor"
       id="g21"
       transform="matrix(0.22703821,0,0,0.22703821,-11.331718,-3.0998283)">
      <path
         d="m 498.34667,512 m -85.33334,0 a 85.333335,85.333335 0 1 0 170.66667,0 85.333335,85.333335 0 1 0 -170.66667,0 z"
         fill=""
         id="path9" />
      <path
         d="m 955.73333,245.76 c -13.65333,-23.89333 -44.37333,-51.2 -122.88,-51.2 -51.2,0 -116.05333,13.65333 -180.90666,34.13333 -10.24,-34.13333 -17.06667,-64.85333 -30.72,-92.16 17.06666,-13.65333 27.30666,-30.72 27.30666,-54.61333 0,-37.546667 -30.72,-68.266667 -68.26666,-68.266667 -13.65334,0 -30.72,6.826667 -40.96,13.653334 -13.65334,-10.24 -30.72,-13.653333 -44.37334,-13.653334 C 426.66667,13.653333 372.05333,102.4 337.92,235.52 283.30667,221.86667 232.10667,215.04 187.73333,215.04 112.64,215.04 81.92,242.34667 68.266667,262.82667 c -34.133333,58.02666 17.066667,153.6 119.466663,252.58666 -10.24,13.65334 -17.06666,23.89334 -27.30666,30.72 C 92.16,624.64 71.68,692.90667 98.986667,740.69333 c 6.826663,13.65334 20.480003,23.89334 34.133333,30.72 0,13.65334 0,27.30667 6.82667,40.96 13.65333,20.48 34.13333,34.13334 58.02666,34.13334 10.24,0 23.89334,-3.41334 34.13334,-10.24 20.48,-10.24 30.72,-30.72 34.13333,-51.2 20.48,-3.41334 44.37333,-6.82667 68.26667,-13.65334 C 368.64,911.36 426.66667,1003.52 494.93333,1003.52 c 68.26667,0 122.88,-88.74667 157.01334,-221.86667 37.54666,10.24 71.68,17.06667 102.4,20.48 0,3.41334 0,6.82667 3.41333,10.24 3.41333,17.06667 17.06667,30.72 30.72,40.96 10.24,6.82667 20.48,10.24 34.13333,10.24 23.89334,0 47.78667,-13.65333 58.02667,-34.13333 6.82667,-13.65333 10.24,-27.30667 6.82667,-40.96 C 901.12,781.65333 914.77333,768 921.6,757.76 955.73333,699.73333 911.36,610.98667 812.37333,515.41333 c 122.88,-102.4 180.90667,-204.8 143.36,-269.65333 z M 836.26667,232.10667 c 34.13333,0 75.09333,6.82666 92.16,34.13333 23.89333,44.37333 -23.89334,133.12 -133.12,228.69333 -34.13334,-30.72 -71.68,-58.02666 -112.64,-88.74666 -3.41334,-51.2 -10.24,-95.57334 -20.48,-139.94667 64.85333,-23.89333 122.88,-34.13333 174.08,-34.13333 z M 604.16,628.05333 c -37.54667,20.48 -75.09333,40.96 -109.22667,58.02667 C 471.04,672.42667 447.14667,662.18667 419.84,648.53333 392.53333,634.88 368.64,617.81333 344.74667,604.16 c -3.41334,-27.30667 -3.41334,-58.02667 -3.41334,-85.33333 0,-27.30667 0,-58.02667 3.41334,-81.92 C 378.88,413.01333 413.01333,392.53333 450.56,368.64 c 13.65333,-6.82667 30.72,-17.06667 44.37333,-23.89333 27.30667,13.65333 51.2,27.30666 78.50667,40.96 27.30667,13.65333 51.2,30.72 75.09333,44.37333 3.41334,27.30667 3.41334,58.02667 3.41334,85.33333 0,30.72 0,61.44 -3.41334,88.74667 -13.65333,6.82667 -30.72,13.65333 -44.37333,23.89333 z M 645.12,645.12 c -3.41333,34.13333 -6.82667,68.26667 -13.65333,98.98667 -30.72,-10.24 -61.44,-23.89334 -95.57334,-37.54667 30.72,-13.65333 58.02667,-30.72 88.74667,-47.78667 3.41333,-6.82666 10.24,-10.24 20.48,-13.65333 z m -191.14667,58.02667 c -30.72,13.65333 -61.44,23.89333 -88.74666,30.72 -6.82667,-27.30667 -10.24,-58.02667 -13.65334,-92.16 17.06667,10.24 34.13334,20.48 54.61334,30.72 13.65333,10.24 30.72,20.48 47.78666,30.72 z M 310.61333,573.44 c -27.30666,-20.48 -51.2,-37.54667 -71.68,-58.02667 20.48,-20.48 47.78667,-40.96 71.68,-61.44 z M 348.16,385.70667 c 3.41333,-37.54667 10.24,-71.68 13.65333,-102.4 30.72,10.24 61.44,23.89333 92.16,37.54666 -6.82666,3.41334 -13.65333,6.82667 -23.89333,13.65334 -27.30667,13.65333 -54.61333,30.72 -81.92,51.2 z M 532.48,317.44 c 30.72,-17.06667 64.85333,-30.72 95.57333,-40.96 6.82667,34.13333 13.65334,68.26667 17.06667,105.81333 -17.06667,-10.24 -34.13333,-20.48 -54.61333,-30.72 C 570.02667,337.92 552.96,327.68 532.48,317.44 Z m 150.18667,133.12 c 30.72,20.48 58.02666,44.37333 81.92,64.85333 -23.89334,20.48 -51.2,40.96 -81.92,61.44 0,-20.48 3.41333,-44.37333 3.41333,-64.85333 0,-20.48 -3.41333,-40.96 -3.41333,-61.44 z M 498.34667,51.2 c 6.82666,0 13.65333,3.413333 23.89333,6.826667 -3.41333,10.24 -6.82667,17.066667 -6.82667,27.306666 V 102.4 c 0,3.41333 3.41334,6.82667 3.41334,10.24 v 3.41333 c 3.41333,3.41334 3.41333,6.82667 6.82666,10.24 3.41334,3.41334 6.82667,6.82667 6.82667,10.24 3.41333,3.41334 6.82667,3.41334 10.24,6.82667 h 3.41333 c 3.41334,0 6.82667,3.41333 10.24,3.41333 h 3.41334 c 3.41333,0 6.82666,0 6.82666,3.41334 H 583.68 c 10.24,27.30666 20.48,58.02666 30.72,88.74666 -40.96,13.65334 -81.92,34.13334 -126.29333,54.61334 -40.96,-20.48 -81.92,-37.54667 -122.88,-51.2 C 402.77333,126.29333 450.56,51.2 498.34667,51.2 Z M 98.986667,283.30667 C 116.05333,256 157.01333,249.17333 191.14667,249.17333 c 40.96,0 88.74666,10.24 143.36,23.89334 -10.24,40.96 -13.65334,88.74666 -20.48,136.53333 C 276.48,436.90667 242.34667,464.21333 215.04,491.52 116.05333,402.77333 75.093333,320.85333 98.986667,283.30667 Z m 163.840003,471.04 c 0,-3.41334 -3.41334,-6.82667 -3.41334,-6.82667 -3.41333,-3.41333 -6.82666,-6.82667 -10.24,-13.65333 l -6.82666,-6.82667 -3.41334,-3.41333 c -10.24,-6.82667 -23.89333,-13.65334 -40.96,-13.65334 h -6.82666 -3.41334 c -3.41333,0 -6.82666,0 -10.24,3.41334 -3.41333,0 -10.24,3.41333 -13.65333,6.82666 -10.24,3.41334 -17.06667,10.24 -20.48,20.48 -6.82667,-3.41333 -13.65333,-10.24 -17.06667,-17.06666 -17.06666,-30.72 3.41334,-88.74667 58.02667,-153.6 6.82667,-10.24 17.06667,-20.48 27.30667,-27.30667 30.72,27.30667 61.44,51.2 98.98666,78.50667 3.41334,44.37333 10.24,85.33333 17.06667,122.88 -20.48,3.41333 -44.37333,10.24 -64.85333,10.24 z M 498.34667,972.8 C 450.56,972.8 402.77333,894.29333 372.05333,768 c 37.54667,-10.24 81.92,-27.30667 122.88,-44.37333 44.37334,20.48 88.74667,37.54666 129.70667,51.2 C 590.50667,897.70667 542.72,972.8 498.34667,972.8 Z M 894.29333,744.10667 c -3.41333,6.82666 -10.24,13.65333 -17.06666,17.06666 l -10.24,-10.24 C 863.57333,747.52 860.16,744.10667 856.74667,744.10667 849.92,740.69333 839.68,737.28 832.85333,737.28 H 819.2 815.78667 c -17.06667,3.41333 -34.13334,10.24 -44.37334,20.48 -3.41333,3.41333 -6.82666,6.82667 -6.82666,10.24 0,3.41333 -3.41334,3.41333 -3.41334,6.82667 -30.72,-3.41334 -64.85333,-10.24 -98.98666,-20.48 6.82666,-40.96 13.65333,-85.33334 17.06666,-129.70667 40.96,-27.30667 78.50667,-54.61333 112.64,-81.92 88.74667,81.92 126.29334,160.42667 102.4,201.38667 z"
         fill=""
         id="path11" />
    </g>
    <g
       aria-label="ZENIT"
       id="text8561"
       style="font-size:50.8px;line-height:1.25;font-family:'Russo One';-inkscape-font-specification:'Russo One';stroke-width:2.11666">
      <path
         d="m 58.136989,237.37076 -17.78,21.336 h 17.78 v 7.112 h -28.956 v -7.112 l 17.78,-21.336 h -17.78 v -7.112 h 28.956 z"
         id="path111" />
      <path
         d="M 90.39502,265.81876 H 62.201021 v -35.56 H 90.39502 v 7.112 H 71.345021 v 6.858 H 86.33102 v 7.112 H 71.345021 v 7.366 H 90.39502 Z"
         id="path113" />
      <path
         d="m 125.44703,265.81876 h -9.652 l -12.192,-21.336 v 21.336 h -9.144 v -35.56 h 9.652 l 12.192,21.336 v -21.336 h 9.144 z"
         id="path115" />
      <path
         d="m 148.30701,265.81876 h -18.288 v -7.112 h 4.572 v -21.336 h -4.572 v -7.112 h 18.288 v 7.112 h -4.572 v 21.336 h 4.572 z"
         id="path117" />
      <path
         d="m 170.15101,265.81876 h -9.144 v -28.448 h -10.668 v -7.112 h 30.48 v 7.112 h -10.668 z"
         id="path119" />
    </g>
    <g
       aria-label="research and development"
       transform="scale(0.79766794,1.2536545)"
       id="text16759"
       style="font-size:14.1524px;line-height:2.05;font-family:'Russo One';-inkscape-font-specification:'Russo One';stroke-width:0.331696">
      <path
         d="m 38.970959,219.12687 0.141524,0.9199 q 0.325506,-0.28304 0.721773,-0.52364 0.339657,-0.19813 0.792534,-0.36796 0.467029,-0.16983 1.033125,-0.16983 h 0.636858 v 2.19363 h -1.202954 q -0.367962,0 -0.70762,0.0708 -0.325505,0.0708 -0.580248,0.14152 -0.2972,0.0991 -0.551944,0.21229 v 5.0241 h -2.47667 v -7.50077 z"
         id="path140" />
      <path
         d="m 45.905616,220.75439 q -0.566096,0 -0.566096,0.5661 v 0.77838 h 2.405908 v -0.77838 q 0,-0.5661 -0.566096,-0.5661 z m -3.042766,0.49534 q 0,-1.06143 0.594401,-1.65583 0.608553,-0.60856 1.669983,-0.60856 h 2.83048 q 1.06143,0 1.655831,0.60856 0.608553,0.5944 0.608553,1.65583 v 2.61819 H 45.33952 v 0.5661 q 0,0.21228 0.141524,0.35381 0.141524,0.14152 0.35381,0.14152 0.608553,0 1.316173,-0.0283 0.721772,-0.0283 1.344478,-0.0708 0.721772,-0.0566 1.443545,-0.11321 v 1.76905 q -0.820839,0.0849 -1.684136,0.14152 -0.735925,0.0566 -1.599221,0.0991 -0.863296,0.0425 -1.669983,0.0425 -0.962363,0 -1.542612,-0.58024 -0.580248,-0.58025 -0.580248,-1.54262 z"
         id="path142" />
      <path
         d="m 53.547917,221.46201 q 0,0.21229 0.141524,0.35381 0.141524,0.14153 0.35381,0.14153 h 2.547432 q 0.962364,0 1.542612,0.58025 0.580248,0.58024 0.580248,1.54261 v 0.56609 q 0,0.96237 -0.580248,1.54262 -0.580248,0.58024 -1.542612,0.58024 -0.905753,0 -1.853964,-0.0425 -0.948211,-0.0425 -1.740745,-0.0991 -0.919906,-0.0566 -1.783203,-0.14152 v -1.83982 q 0.76423,0.0566 1.542612,0.11322 0.679315,0.0425 1.47185,0.0708 0.792534,0.0283 1.514306,0.0283 0.212286,0 0.35381,-0.14152 0.141524,-0.14153 0.141524,-0.35381 v -0.49534 h -3.042766 q -0.962363,0 -1.542611,-0.58025 -0.580249,-0.58025 -0.580249,-1.54261 v -0.49533 q 0,-0.96237 0.580249,-1.54261 0.580248,-0.58025 1.542611,-0.58025 h 4.811816 v 1.83981 h -3.962672 q -0.212286,0 -0.35381,0.14152 -0.141524,0.14153 -0.141524,0.35381 z"
         id="path144" />
      <path
         d="m 62.605452,220.75439 q -0.566096,0 -0.566096,0.5661 v 0.77838 h 2.405908 v -0.77838 q 0,-0.5661 -0.566096,-0.5661 z m -3.042766,0.49534 q 0,-1.06143 0.5944,-1.65583 0.608554,-0.60856 1.669984,-0.60856 h 2.83048 q 1.06143,0 1.65583,0.60856 0.608554,0.5944 0.608554,1.65583 v 2.61819 h -4.882578 v 0.5661 q 0,0.21228 0.141524,0.35381 0.141524,0.14152 0.35381,0.14152 0.608553,0 1.316173,-0.0283 0.721772,-0.0283 1.344478,-0.0708 0.721772,-0.0566 1.443545,-0.11321 v 1.76905 q -0.82084,0.0849 -1.684136,0.14152 -0.735925,0.0566 -1.599221,0.0991 -0.863297,0.0425 -1.669983,0.0425 -0.962364,0 -1.542612,-0.58024 -0.580248,-0.58025 -0.580248,-1.54262 z"
         id="path146" />
      <path
         d="m 71.167661,224.78783 q 0.268896,0 0.566096,-0.0425 0.297201,-0.0425 0.551944,-0.0991 0.2972,-0.0566 0.580248,-0.14152 v -0.84914 h -2.052098 q -0.212286,0 -0.35381,0.14152 -0.141524,0.14152 -0.141524,0.35381 v 0.14152 q 0,0.21229 0.141524,0.35381 0.141524,0.14153 0.35381,0.14153 z m -1.202954,1.98133 q -0.962363,0 -1.542611,-0.58024 -0.580249,-0.58025 -0.580249,-1.54262 v -0.63685 q 0,-0.96237 0.580249,-1.54262 0.580248,-0.58024 1.542611,-0.58024 h 2.901242 v -0.5661 q 0,-0.21229 -0.141524,-0.35381 -0.141524,-0.14152 -0.35381,-0.14152 -0.566096,0 -1.231259,0.0425 -0.65101,0.0283 -1.231258,0.0708 -0.679316,0.0566 -1.358631,0.0991 v -1.76905 q 0.778382,-0.0849 1.585069,-0.14152 0.693468,-0.0566 1.514307,-0.0991 0.820839,-0.0425 1.570916,-0.0425 0.962363,0 1.542612,0.58025 0.580248,0.58025 0.580248,1.54261 v 5.51944 h -2.193622 l -0.141524,-0.70762 q -0.367962,0.24059 -0.792534,0.42457 -0.367963,0.15568 -0.820839,0.28305 -0.452877,0.14152 -0.934059,0.14152 z"
         id="path148" />
      <path
         d="m 78.809949,219.12687 0.141524,0.9199 q 0.325505,-0.28304 0.721772,-0.52364 0.339658,-0.19813 0.792534,-0.36796 0.46703,-0.16983 1.033126,-0.16983 h 0.636858 v 2.19363 h -1.202954 q -0.367963,0 -0.70762,0.0708 -0.325506,0.0708 -0.580249,0.14152 -0.2972,0.0991 -0.551943,0.21229 v 5.0241 h -2.47667 v -7.50077 z"
         id="path150" />
      <path
         d="m 82.701838,221.39125 q 0,-1.06143 0.594401,-1.65583 0.608553,-0.60855 1.669983,-0.60855 h 4.528768 v 1.91057 h -3.750386 q -0.566096,0 -0.566096,0.5661 v 2.75972 q 0,0.21228 0.141524,0.35381 0.141524,0.14152 0.35381,0.14152 0.551944,0 1.217107,-0.0283 0.665162,-0.0283 1.245411,-0.0708 0.679315,-0.0566 1.35863,-0.11322 v 1.83982 q -0.792534,0.0849 -1.599221,0.14152 -0.693468,0.0566 -1.514307,0.0991 -0.806687,0.0425 -1.556764,0.0425 -0.962363,0 -1.542611,-0.58024 -0.580249,-0.58025 -0.580249,-1.54262 z"
         id="path152" />
      <path
         d="m 94.80213,220.89592 q -0.297201,0 -0.608553,0.0283 -0.297201,0.0142 -0.537792,0.0425 -0.283048,0.0425 -0.551943,0.0708 v 5.5902 h -2.47667 v -9.90668 h 2.47667 v 2.54743 q 0.410419,-0.0849 0.834991,-0.14152 0.367963,-0.0566 0.778382,-0.0991 0.424572,-0.0425 0.792535,-0.0425 h 0.636858 q 0.962363,0 1.542611,0.58025 0.580249,0.58025 0.580249,1.54261 v 5.51944 h -2.47667 v -5.23639 q 0,-0.21228 -0.141524,-0.35381 -0.141524,-0.14152 -0.35381,-0.14152 z"
         id="path154" />
      <path
         d="m 106.76088,224.78783 q 0.2689,0 0.5661,-0.0425 0.2972,-0.0425 0.55194,-0.0991 0.2972,-0.0566 0.58025,-0.14152 v -0.84914 h -2.0521 q -0.21228,0 -0.35381,0.14152 -0.14152,0.14152 -0.14152,0.35381 v 0.14152 q 0,0.21229 0.14152,0.35381 0.14153,0.14153 0.35381,0.14153 z m -1.20295,1.98133 q -0.96236,0 -1.54261,-0.58024 -0.58025,-0.58025 -0.58025,-1.54262 v -0.63685 q 0,-0.96237 0.58025,-1.54262 0.58025,-0.58024 1.54261,-0.58024 h 2.90124 v -0.5661 q 0,-0.21229 -0.14152,-0.35381 -0.14153,-0.14152 -0.35381,-0.14152 -0.5661,0 -1.23126,0.0425 -0.65101,0.0283 -1.23126,0.0708 -0.67931,0.0566 -1.35863,0.0991 v -1.76905 q 0.77838,-0.0849 1.58507,-0.14152 0.69347,-0.0566 1.51431,-0.0991 0.82084,-0.0425 1.57091,-0.0425 0.96237,0 1.54261,0.58025 0.58025,0.58025 0.58025,1.54261 v 5.51944 h -2.19362 l -0.14152,-0.70762 q -0.36797,0.24059 -0.79254,0.42457 -0.36796,0.15568 -0.82084,0.28305 -0.45287,0.14152 -0.93406,0.14152 z"
         id="path156" />
      <path
         d="m 114.40317,219.12687 0.14153,0.70762 q 0.36796,-0.24059 0.79253,-0.42457 0.36796,-0.15568 0.82084,-0.28305 0.45288,-0.14153 0.93406,-0.14153 h 0.63686 q 0.96236,0 1.54261,0.58025 0.58025,0.58025 0.58025,1.54261 v 5.51944 h -2.47667 v -5.09486 q 0,-0.21229 -0.14153,-0.35381 -0.14152,-0.14153 -0.35381,-0.14153 h -0.49533 q -0.2689,0 -0.5661,0.0425 -0.2972,0.0425 -0.55194,0.0991 -0.2972,0.0566 -0.58025,0.14152 v 5.30715 h -2.47667 v -7.50077 z"
         id="path158" />
      <path
         d="m 126.4327,226.62764 -0.14152,-0.70762 q -0.36797,0.24059 -0.79254,0.42457 -0.36796,0.15568 -0.82084,0.28305 -0.45287,0.14152 -0.93406,0.14152 h -0.63685 q -0.96237,0 -1.54261,-0.58024 -0.58025,-0.58025 -0.58025,-1.54262 v -3.25505 q 0,-1.06143 0.5944,-1.65583 0.60855,-0.60855 1.66998,-0.60855 h 2.90124 v -2.40591 h 2.47667 v 9.90668 z m -0.28305,-5.5902 h -2.12286 q -0.56609,0 -0.56609,0.5661 v 2.61819 q 0,0.21229 0.14152,0.35381 0.14152,0.14153 0.35381,0.14153 h 0.49533 q 0.2689,0 0.5661,-0.0425 0.2972,-0.0425 0.55194,-0.0991 0.2972,-0.0566 0.58025,-0.14152 z"
         id="path160" />
      <path
         d="m 139.59441,226.62764 -0.14153,-0.70762 q -0.36796,0.24059 -0.79253,0.42457 -0.36797,0.15568 -0.82084,0.28305 -0.45288,0.14152 -0.93406,0.14152 h -0.63686 q -0.96236,0 -1.54261,-0.58024 -0.58025,-0.58025 -0.58025,-1.54262 v -3.25505 q 0,-1.06143 0.5944,-1.65583 0.60856,-0.60855 1.66999,-0.60855 h 2.90124 v -2.40591 h 2.47667 v 9.90668 z m -0.28305,-5.5902 h -2.12286 q -0.5661,0 -0.5661,0.5661 v 2.61819 q 0,0.21229 0.14153,0.35381 0.14152,0.14153 0.35381,0.14153 h 0.49533 q 0.2689,0 0.5661,-0.0425 0.2972,-0.0425 0.55194,-0.0991 0.2972,-0.0566 0.58025,-0.14152 z"
         id="path162" />
      <path
         d="m 146.1045,220.75439 q -0.5661,0 -0.5661,0.5661 v 0.77838 h 2.40591 v -0.77838 q 0,-0.5661 -0.5661,-0.5661 z m -3.04277,0.49534 q 0,-1.06143 0.5944,-1.65583 0.60856,-0.60856 1.66999,-0.60856 h 2.83048 q 1.06143,0 1.65583,0.60856 0.60855,0.5944 0.60855,1.65583 v 2.61819 h -4.88258 v 0.5661 q 0,0.21228 0.14153,0.35381 0.14152,0.14152 0.35381,0.14152 0.60855,0 1.31617,-0.0283 0.72177,-0.0283 1.34448,-0.0708 0.72177,-0.0566 1.44354,-0.11321 v 1.76905 q -0.82084,0.0849 -1.68413,0.14152 -0.73593,0.0566 -1.59922,0.0991 -0.8633,0.0425 -1.66999,0.0425 -0.96236,0 -1.54261,-0.58024 -0.58025,-0.58025 -0.58025,-1.54262 z"
         id="path164" />
      <path
         d="m 156.57728,219.12687 h 2.61819 l -2.83048,7.50077 h -2.83048 l -2.83048,-7.50077 h 2.6182 l 1.62752,5.09486 z"
         id="path166" />
      <path
         d="m 162.52128,220.75439 q -0.56609,0 -0.56609,0.5661 v 0.77838 h 2.40591 v -0.77838 q 0,-0.5661 -0.5661,-0.5661 z m -3.04276,0.49534 q 0,-1.06143 0.5944,-1.65583 0.60855,-0.60856 1.66998,-0.60856 h 2.83048 q 1.06143,0 1.65583,0.60856 0.60856,0.5944 0.60856,1.65583 v 2.61819 h -4.88258 v 0.5661 q 0,0.21228 0.14152,0.35381 0.14153,0.14152 0.35381,0.14152 0.60856,0 1.31618,-0.0283 0.72177,-0.0283 1.34447,-0.0708 0.72178,-0.0566 1.44355,-0.11321 v 1.76905 q -0.82084,0.0849 -1.68414,0.14152 -0.73592,0.0566 -1.59922,0.0991 -0.8633,0.0425 -1.66998,0.0425 -0.96237,0 -1.54261,-0.58024 -0.58025,-0.58025 -0.58025,-1.54262 z"
         id="path168" />
      <path
         d="m 168.11149,216.72096 h 2.47667 v 7.57153 q 0,0.21229 0.14152,0.35381 0.14153,0.14153 0.35381,0.14153 h 0.84915 v 1.83981 q -0.28305,0.0425 -0.58025,0.0708 -0.25474,0.0283 -0.55194,0.0425 -0.2972,0.0283 -0.5661,0.0283 -0.96236,0 -1.54261,-0.58024 -0.58025,-0.58025 -0.58025,-1.54262 z"
         id="path170" />
      <path
         d="m 180.5656,224.50478 q 0,1.06143 -0.60855,1.66998 -0.59441,0.5944 -1.65584,0.5944 h -3.25505 q -1.06143,0 -1.66998,-0.5944 -0.5944,-0.60855 -0.5944,-1.66998 v -3.25505 q 0,-1.06143 0.5944,-1.65583 0.60855,-0.60856 1.66998,-0.60856 h 3.25505 q 1.06143,0 1.65584,0.60856 0.60855,0.5944 0.60855,1.65583 z m -2.47667,-3.04277 q 0,-0.56609 -0.5661,-0.56609 h -1.69829 q -0.56609,0 -0.56609,0.56609 v 2.83048 q 0,0.5661 0.56609,0.5661 h 1.69829 q 0.5661,0 0.5661,-0.5661 z"
         id="path172" />
      <path
         d="m 184.31597,224.71707 h 2.12286 q 0.5661,0 0.5661,-0.5661 v -2.61819 q 0,-0.21229 -0.14152,-0.35381 -0.14153,-0.14153 -0.35381,-0.14153 h -0.49534 q -0.26889,0 -0.56609,0.0425 -0.29721,0.0425 -0.55195,0.0991 -0.2972,0.0566 -0.58025,0.14152 z m 0,1.91057 v 2.40591 h -2.47667 v -9.90668 h 2.19363 l 0.14152,0.70762 q 0.36796,-0.24059 0.79253,-0.42457 0.36797,-0.15568 0.82084,-0.28305 0.45288,-0.14153 0.93406,-0.14153 h 0.63686 q 0.96236,0 1.54261,0.58025 0.58025,0.58025 0.58025,1.54261 v 3.25506 q 0,1.06143 -0.60855,1.66998 -0.5944,0.5944 -1.65583,0.5944 z"
         id="path174" />
      <path
         d="m 199.52979,221.03744 q -0.24059,0 -0.52364,0.0425 -0.28305,0.0425 -0.52364,0.0991 -0.28304,0.0566 -0.58024,0.14152 v 5.30715 h -2.47667 v -5.09486 q 0,-0.21229 -0.14153,-0.35381 -0.14152,-0.14153 -0.35381,-0.14153 h -0.0708 q -0.24059,0 -0.52364,0.0425 -0.28305,0.0425 -0.52364,0.0991 -0.28305,0.0566 -0.58025,0.14152 v 5.30715 h -2.47667 v -7.50077 h 2.19363 l 0.14152,0.70762 q 0.36796,-0.24059 0.79253,-0.42457 0.36797,-0.15568 0.82084,-0.28305 0.45288,-0.14153 0.93406,-0.14153 h 0.14153 q 0.63685,0 1.06143,0.24059 0.43872,0.2406 0.70762,0.60856 0.35381,-0.24059 0.79253,-0.42457 0.36796,-0.15568 0.8633,-0.28305 0.50948,-0.14153 1.10388,-0.14153 h 0.14153 q 0.96236,0 1.54261,0.58025 0.58025,0.58025 0.58025,1.54261 v 5.51944 h -2.47667 v -5.09486 q 0,-0.21229 -0.14153,-0.35381 -0.14152,-0.14153 -0.35381,-0.14153 z"
         id="path176" />
      <path
         d="m 206.7475,220.75439 q -0.56609,0 -0.56609,0.5661 v 0.77838 h 2.40591 v -0.77838 q 0,-0.5661 -0.5661,-0.5661 z m -3.04276,0.49534 q 0,-1.06143 0.5944,-1.65583 0.60855,-0.60856 1.66998,-0.60856 h 2.83048 q 1.06143,0 1.65583,0.60856 0.60856,0.5944 0.60856,1.65583 v 2.61819 h -4.88258 v 0.5661 q 0,0.21228 0.14152,0.35381 0.14153,0.14152 0.35381,0.14152 0.60855,0 1.31617,-0.0283 0.72178,-0.0283 1.34448,-0.0708 0.72177,-0.0566 1.44355,-0.11321 v 1.76905 q -0.82084,0.0849 -1.68414,0.14152 -0.73592,0.0566 -1.59922,0.0991 -0.8633,0.0425 -1.66998,0.0425 -0.96237,0 -1.54261,-0.58024 -0.58025,-0.58025 -0.58025,-1.54262 z"
         id="path178" />
      <path
         d="m 214.53134,219.12687 0.14152,0.70762 q 0.36796,-0.24059 0.79254,-0.42457 0.36796,-0.15568 0.82084,-0.28305 0.45287,-0.14153 0.93405,-0.14153 h 0.63686 q 0.96237,0 1.54261,0.58025 0.58025,0.58025 0.58025,1.54261 v 5.51944 h -2.47667 v -5.09486 q 0,-0.21229 -0.14152,-0.35381 -0.14153,-0.14153 -0.35381,-0.14153 h -0.49534 q -0.26889,0 -0.56609,0.0425 -0.2972,0.0425 -0.55195,0.0991 -0.2972,0.0566 -0.58024,0.14152 v 5.30715 h -2.47667 v -7.50077 z"
         id="path180" />
      <path
         d="m 224.15496,219.12687 h 1.76905 v 1.91057 h -1.76905 v 3.25505 q 0,0.21229 0.14152,0.35381 0.14153,0.14153 0.35381,0.14153 h 1.83981 v 1.83981 q -0.41041,0.0425 -0.86329,0.0708 -0.38212,0.0283 -0.8633,0.0425 -0.48118,0.0283 -0.96236,0.0283 -0.96236,0 -1.54261,-0.58024 -0.58025,-0.58025 -0.58025,-1.54262 v -3.60886 h -0.84915 v -1.91057 h 0.84915 l 0.28305,-1.69829 h 2.19362 z"
         id="path182" />
    </g>
  </g>
</svg>
